<?xml version="1.0" standalone="no"?>
<!DOCTYPE svg PUBLIC "-//W3C//DTD SVG 20010904//EN"
 "http://www.w3.org/TR/2001/REC-SVG-20010904/DTD/svg10.dtd">
<svg version="1.0" xmlns="http://www.w3.org/2000/svg"
 width="500.000000pt" height="500.000000pt" viewBox="0 0 500.000000 500.000000"
 preserveAspectRatio="xMidYMid meet">

<g transform="translate(0.000000,500.000000) scale(0.100000,-0.100000)"
fill="#F2EAD5ff" stroke="none">
<path d="M610 2515 l0 -1985 888 2 c872 3 887 3 885 22 -1 11 8 38 19 60 33
65 166 282 235 386 l64 95 -62 -65 c-60 -63 -150 -167 -314 -364 l-80 -96 -83
0 -84 0 53 62 c212 249 572 611 644 649 108 57 195 46 250 -29 48 -65 150
-272 179 -362 26 -84 40 -160 29 -160 -5 0 -41 68 -81 152 -39 83 -74 149 -77
147 -2 -3 0 -32 5 -65 13 -76 13 -234 1 -234 -6 0 -12 -19 -14 -42 l-4 -43 -1
48 c-2 48 -12 64 -128 210 -33 41 -37 32 -10 -20 32 -64 89 -207 105 -262 15
-52 7 -61 -52 -61 -27 0 -37 -4 -34 -12 3 -10 156 -13 723 -13 l719 0 3 1983
2 1982 -1890 0 -1890 0 0 -1985z m3710 25 l0 -1920 -605 0 -605 0 0 40 c0 25
5 40 13 41 8 0 1001 9 1090 9 4 0 7 821 7 1825 l0 1825 -1720 0 -1720 0 2
-1826 3 -1826 505 -1 505 -2 3 -42 3 -43 -560 0 -561 0 0 1920 0 1920 1820 0
1820 0 0 -1920z m-140 1438 l0 -343 -35 -24 c-43 -29 -70 -71 -86 -136 -15
-61 -44 -104 -53 -79 -3 9 -6 41 -6 71 0 45 5 63 26 90 31 41 118 223 110 231
-12 11 -92 -34 -133 -75 -49 -49 -57 -41 -47 49 7 62 -14 308 -26 308 -4 0
-24 -36 -44 -79 l-37 -80 -33 37 c-30 33 -83 134 -123 235 -25 60 -38 31 -38
-81 1 -142 31 -209 115 -252 38 -19 72 -79 86 -149 l6 -30 -33 12 c-18 7 -59
36 -90 65 -65 59 -112 145 -136 246 -11 48 -25 72 -70 123 -30 35 -58 62 -60
59 -3 -3 15 -31 39 -63 57 -74 68 -95 68 -130 l-1 -28 -35 40 c-33 36 -36 35
-18 -9 4 -11 -3 -13 -34 -9 -23 3 -63 -2 -98 -12 l-59 -17 60 -18 c33 -10 80
-25 104 -34 24 -9 58 -16 76 -16 35 0 58 -19 74 -64 10 -25 10 -28 -6 -21 -66
28 -171 55 -211 55 l-46 0 34 -32 c57 -53 130 -98 159 -98 18 0 42 -16 81 -57
39 -40 77 -67 130 -91 93 -43 110 -57 110 -95 l0 -29 -53 48 c-87 80 -144 105
-246 111 -100 6 -101 12 27 -90 104 -84 152 -109 226 -116 55 -6 60 -8 67 -35
7 -26 6 -27 -14 -21 -12 4 -64 9 -116 12 -89 5 -93 5 -83 -13 19 -37 119 -122
173 -149 30 -15 69 -38 87 -52 30 -22 32 -28 32 -81 -1 -51 -2 -55 -15 -38
-19 25 -45 14 -45 -19 0 -14 -11 -53 -25 -87 -42 -104 -29 -222 38 -335 31
-53 12 -50 -27 4 -58 78 -70 128 -67 281 2 155 -8 203 -66 301 -45 77 -63 87
-63 38 0 -19 -7 -70 -16 -112 -9 -43 -14 -93 -11 -112 4 -22 2 -31 -5 -27 -14
9 -58 105 -58 127 0 48 -104 187 -139 187 -9 0 13 -112 25 -131 9 -15 -13 -10
-27 7 -22 27 -109 64 -109 46 0 -5 16 -30 35 -55 19 -25 35 -48 35 -51 0 -3
-25 -6 -55 -6 -62 0 -155 -18 -155 -30 0 -4 22 -22 49 -40 36 -22 66 -33 108
-37 47 -4 71 -14 126 -51 63 -43 73 -46 134 -48 59 -1 69 -4 90 -29 13 -15 22
-29 20 -31 -2 -2 -21 1 -42 7 -38 11 -148 5 -189 -10 -17 -7 -16 -9 13 -19 18
-6 55 -28 82 -48 27 -20 72 -48 100 -64 28 -15 96 -65 151 -111 94 -79 104
-90 149 -179 26 -52 68 -135 93 -183 45 -88 46 -90 46 -185 0 -74 -5 -107 -20
-139 -22 -48 -28 -51 -61 -24 -20 17 -22 23 -12 38 50 72 56 95 51 191 -3 51
-10 98 -15 103 -7 7 -21 -10 -42 -53 -17 -35 -40 -79 -51 -99 -11 -20 -24 -56
-28 -80 l-8 -44 -18 27 c-22 33 -17 60 31 181 31 76 35 97 30 146 -4 50 -38
151 -57 174 -4 4 -19 -25 -34 -65 -32 -89 -34 -166 -6 -240 43 -112 16 -139
-36 -36 -54 108 -56 120 -34 209 25 98 25 150 0 197 -25 48 -67 98 -75 90 -4
-3 -10 -28 -14 -55 l-7 -48 -37 56 c-41 64 -93 108 -152 131 -25 10 -49 29
-65 52 -13 21 -26 33 -28 27 -9 -28 37 -120 114 -231 46 -67 84 -124 84 -126
0 -16 -100 26 -176 74 -41 26 -45 32 -85 152 -88 261 -132 341 -229 414 -58
43 -166 91 -271 121 l-56 16 -6 59 c-3 41 -15 76 -36 113 -17 30 -31 62 -31
72 0 9 20 40 44 69 25 28 48 65 52 81 4 17 15 41 26 54 20 27 23 59 7 114 -9
34 -8 41 16 69 39 46 52 77 60 140 8 65 -1 76 -47 59 -25 -9 -26 -8 -31 37 -3
26 -13 65 -22 87 l-17 39 -30 -33 c-16 -18 -31 -31 -32 -29 -1 1 -8 22 -14 45
-8 28 -26 54 -54 77 -59 51 -68 48 -68 -24 l0 -59 -47 25 -48 25 -3 -50 -3
-51 -55 0 -54 0 0 49 0 50 -29 -10 c-17 -6 -35 -17 -42 -25 -21 -26 -29 -14
-29 46 0 47 -3 60 -15 60 -25 0 -105 -87 -112 -120 -8 -43 -18 -45 -44 -8
l-23 32 -18 -40 c-9 -21 -20 -60 -24 -86 l-6 -46 -34 14 -34 14 0 -62 c0 -68
23 -129 64 -167 22 -21 23 -24 9 -64 -16 -45 -11 -91 11 -116 7 -9 19 -32 25
-51 6 -20 32 -59 57 -88 l45 -52 -40 -74 c-34 -61 -41 -83 -41 -128 l0 -55
-64 -17 c-129 -35 -245 -110 -328 -210 -68 -83 -267 -290 -273 -284 -5 5 -95
438 -95 458 0 5 11 10 24 10 32 0 56 35 56 80 0 19 3 52 7 73 5 35 8 38 32 32
23 -6 40 -16 87 -50 21 -15 48 19 47 58 -1 26 5 36 28 49 16 10 29 26 29 36 0
19 -37 42 -67 42 -14 0 -13 4 5 20 12 12 22 25 22 30 0 14 -32 42 -66 56 -28
12 -32 19 -37 65 -11 88 -55 131 -118 113 -46 -13 -71 -53 -77 -121 -3 -42
-10 -65 -27 -83 -35 -38 -91 -147 -114 -223 -25 -83 -72 -525 -74 -707 -1 -78
3 -145 11 -177 l14 -53 -36 -54 c-20 -30 -36 -58 -36 -62 0 -19 -54 -146 -58
-135 -2 6 6 36 17 66 25 67 27 125 5 189 -9 26 -14 58 -11 72 11 61 -43 26
-84 -54 -37 -73 -34 -165 10 -259 36 -77 37 -120 6 -188 -13 -29 -13 -28 -14
35 -1 55 -7 77 -43 149 -39 78 -41 85 -30 125 6 22 7 45 2 49 -16 17 -99 -153
-100 -204 0 -9 -7 -22 -15 -29 -13 -11 -15 2 -15 106 l0 119 39 22 c22 13 53
42 70 66 17 23 59 63 92 87 76 55 115 104 141 177 18 51 20 74 15 203 -7 196
-21 239 -45 138 -12 -55 -56 -149 -116 -253 l-35 -60 0 50 c0 61 10 115 39
223 12 46 19 87 15 90 -4 4 -20 -9 -36 -28 l-29 -34 0 59 0 58 83 81 c46 45
96 98 111 119 15 21 43 46 62 54 78 38 6 66 -95 37 -34 -9 -64 -21 -67 -25
-12 -21 -23 -7 -12 16 7 16 32 35 69 51 70 32 89 51 130 134 17 36 38 73 47
83 8 9 12 20 8 24 -7 8 -100 -23 -133 -45 -31 -19 -29 -8 3 21 16 15 44 27 70
31 63 8 101 30 167 97 32 33 64 59 72 59 8 0 15 4 15 9 0 20 -146 16 -195 -4
-17 -8 -18 -7 -7 7 7 8 39 25 72 37 47 17 74 37 138 101 76 77 78 81 54 87
-24 6 -105 -6 -147 -21 -18 -7 -18 -6 2 11 12 10 39 29 61 42 21 12 47 37 57
54 24 40 46 157 30 157 -24 0 -99 -76 -120 -122 l-22 -48 -7 54 c-12 103 -23
109 -63 34 -26 -50 -28 -60 -26 -162 2 -70 -2 -116 -10 -132 -10 -20 -12 -14
-12 49 -1 53 -9 94 -29 154 -16 45 -33 80 -38 77 -16 -10 -55 -98 -68 -153 -7
-30 -10 -75 -6 -105 4 -41 1 -63 -19 -111 -16 -40 -25 -81 -26 -125 -1 -36 -3
-56 -6 -45 -2 11 -15 68 -29 127 -20 83 -25 126 -23 193 2 47 1 85 -2 85 -15
0 -61 -62 -88 -120 -47 -103 -62 -288 -35 -430 l7 -35 -28 40 c-15 22 -44 60
-64 85 l-36 45 3 328 3 327 1679 0 1680 0 0 -342z m-2641 248 c-6 -20 -23 -51
-39 -69 -29 -31 -29 -31 -30 -9 0 33 28 90 53 107 27 19 28 16 16 -29z m-149
-78 c0 -57 -3 -78 -10 -68 -7 12 -10 8 -10 -15 0 -23 -3 -27 -10 -15 -15 23
-12 118 5 150 9 17 18 30 20 30 3 0 5 -37 5 -82z m958 15 c-5 -54 -34 -132
-50 -133 -12 0 -18 75 -8 109 8 30 45 81 58 81 3 0 2 -26 0 -57z m419 7 c23
-43 28 -88 14 -124 -13 -32 -47 39 -55 113 -9 75 5 79 41 11z m-1507 -76 c11
-36 20 -78 20 -93 l-1 -26 -15 25 c-14 24 -15 22 -10 -35 3 -34 -1 -77 -8
-100 l-12 -40 -22 58 c-33 86 -30 147 13 265 8 22 14 13 35 -54z m1186 32 c-5
-21 -49 -56 -71 -56 -12 0 18 46 43 67 31 26 37 23 28 -11z m219 -6 c35 -36
37 -40 17 -40 -27 0 -62 33 -62 60 0 11 1 20 3 20 2 0 21 -18 42 -40z m1104
-198 c18 -66 18 -71 3 -63 -23 12 -46 40 -66 78 -19 37 -40 168 -30 184 9 16
68 -109 93 -199z m-1520 83 l0 -40 -29 55 c-16 30 -29 66 -30 79 0 22 3 21 30
-15 21 -28 29 -50 29 -79z m602 18 l-30 -58 -1 40 c0 28 8 52 27 80 25 35 28
37 31 18 2 -12 -10 -48 -27 -80z m-229 29 c9 -9 -9 -12 -85 -12 -53 0 -97 2
-97 5 0 25 158 31 182 7z m-408 -95 c5 -20 3 -27 -5 -22 -17 11 -39 70 -38
102 0 26 1 26 18 -12 10 -22 21 -53 25 -68z m686 71 c0 -33 -36 -105 -47 -94
-6 5 36 126 43 126 2 0 4 -15 4 -32z m-1409 -27 c-39 -42 -128 -97 -139 -86
-7 6 26 60 51 83 22 20 91 49 123 51 5 1 -10 -21 -35 -48z m-427 -221 c37
-118 42 -181 21 -259 -16 -63 -62 -167 -70 -159 -2 2 8 40 22 83 35 106 36
203 4 300 -13 39 -27 74 -32 80 -12 12 -12 12 12 -110 20 -104 20 -109 3 -181
-9 -41 -21 -74 -25 -74 -19 0 -42 111 -46 221 -5 125 7 199 49 288 l22 46 7
-75 c4 -41 19 -113 33 -160z m1456 206 c0 -23 -4 -25 -50 -24 -37 0 -62 -7
-96 -27 -55 -33 -52 -45 5 -16 52 27 134 29 129 4 -4 -26 -123 -100 -172 -108
-22 -4 -61 -20 -85 -36 -25 -16 -48 -29 -52 -29 -39 0 6 96 78 168 64 64 120
91 191 92 49 0 52 -2 52 -24z m185 0 c58 -26 125 -97 161 -169 37 -72 23 -84
-47 -38 -24 16 -62 32 -84 36 -63 11 -175 84 -175 115 0 17 76 12 130 -9 57
-22 57 -10 0 19 -24 12 -59 20 -90 20 -47 0 -50 2 -50 25 0 24 3 25 53 25 33
0 70 -8 102 -24z m1227 -210 l-8 -31 -27 59 c-33 71 -33 81 -6 143 l22 48 13
-94 c8 -55 10 -108 6 -125z m-1783 166 c5 -10 12 -35 16 -56 7 -37 7 -38 -15
-26 -23 12 -50 66 -50 100 0 18 3 19 20 10 11 -6 24 -18 29 -28z m826 16 c-4
-13 -9 -32 -12 -43 -6 -22 -42 -65 -54 -65 -11 0 0 58 17 92 20 40 60 53 49
16z m573 -28 c17 -11 32 -24 32 -30 0 -13 7 -14 -80 20 l-75 29 45 1 c28 0 57
-8 78 -20z m-939 -84 c52 -38 111 -100 111 -116 0 -6 -10 -6 -26 0 -38 15 -91
12 -108 -5 -27 -27 -35 -123 -11 -128 6 -1 11 12 13 28 8 89 31 107 96 75 76
-36 81 -46 62 -136 -37 -184 -162 -276 -286 -212 -73 37 -122 124 -137 241 -5
43 -3 51 22 77 37 38 75 52 106 36 18 -9 26 -24 33 -64 12 -68 26 -67 26 3 0
42 -5 60 -20 75 -24 24 -79 26 -121 4 l-30 -15 15 29 c20 39 63 81 115 112 22
14 46 37 53 52 l13 28 12 -24 c7 -13 35 -40 62 -60z m1265 -43 c26 -77 34
-136 17 -118 -5 6 -19 42 -31 80 -13 39 -31 87 -41 107 -26 51 -23 68 5 36 13
-15 36 -62 50 -105z m-2680 41 c3 -9 6 -28 5 -42 0 -24 -1 -25 -9 -7 -8 18 -9
17 -9 -8 -1 -44 -22 -117 -32 -111 -15 9 -10 101 7 144 17 43 28 50 38 24z
m201 -54 c-45 -45 -145 -90 -145 -66 0 22 51 77 85 92 16 7 46 13 65 14 l35 0
-40 -40z m2159 9 c67 -20 186 -74 186 -84 0 -7 -94 7 -100 15 -3 4 -24 11 -47
15 -23 3 -62 20 -87 37 -70 46 -61 49 48 17z m-1235 -54 c-36 -50 -82 -83
-120 -87 -20 -3 -24 1 -24 26 0 24 5 31 28 37 15 4 46 21 69 38 23 17 50 31
61 31 16 0 14 -6 -14 -45z m470 22 c60 -39 76 -47 94 -47 12 0 17 -8 17 -30 0
-27 -3 -30 -30 -30 -32 0 -92 47 -131 102 -19 26 -19 28 -2 28 10 0 33 -10 52
-23z m1284 -73 c-20 -62 -74 -140 -84 -122 -25 49 -20 66 37 123 31 31 58 54
60 52 2 -2 -3 -26 -13 -53z m-2519 -10 c9 -9 16 -32 16 -55 0 -38 -1 -39 -37
-39 -21 0 -48 -3 -60 -6 -21 -6 -23 -3 -23 37 0 25 7 50 17 61 20 22 66 24 87
2z m2395 -61 c28 -104 45 -268 30 -295 -14 -27 -20 -19 -41 60 -27 104 -36
312 -14 312 2 0 13 -35 25 -77z m-164 46 c22 -6 55 -18 73 -26 28 -13 32 -20
32 -53 l0 -38 -64 25 c-35 14 -83 43 -107 64 l-44 38 35 1 c19 0 53 -5 75 -11z
m-1516 -63 c-12 -26 -41 -42 -59 -31 -15 9 -12 25 4 25 8 0 24 9 37 19 29 24
33 21 18 -13z m568 4 c17 0 36 -27 23 -35 -18 -11 -46 4 -58 31 -17 35 -15 40
6 21 10 -10 23 -17 29 -17z m-1604 -27 c-34 -62 -91 -122 -114 -120 -23 2 -24
-2 6 57 15 29 43 63 67 80 60 44 71 39 41 -17z m-299 -133 c33 -71 44 -162 31
-265 -9 -76 -24 -69 -18 8 9 114 -19 234 -72 301 -28 36 -26 10 4 -55 30 -64
55 -219 35 -219 -5 0 -28 31 -51 68 l-43 67 0 125 1 125 41 -45 c22 -25 55
-74 72 -110z m3246 96 c0 -41 -4 -48 -52 -91 -60 -54 -72 -45 -43 30 15 41 69
105 87 105 4 0 8 -20 8 -44z m-437 -3 c62 -34 170 -133 145 -133 -56 0 -171
63 -258 141 l-35 31 49 -6 c26 -3 71 -18 99 -33z m-2124 -1 c82 -26 77 -42
-11 -35 -54 4 -83 1 -111 -11 -52 -21 -39 -38 24 -30 51 7 70 -1 90 -38 9 -17
8 -18 -10 -9 -28 16 -104 14 -99 -1 3 -7 21 -16 41 -19 36 -6 107 -52 107 -70
0 -5 -13 -3 -29 5 -16 9 -47 18 -69 22 -34 5 -43 3 -59 -17 -10 -12 -39 -46
-65 -74 l-47 -51 39 -189 c21 -105 54 -268 72 -363 33 -175 53 -216 53 -108 0
49 3 60 25 76 34 26 50 25 88 -7 31 -27 86 -138 76 -155 -2 -4 -75 -63 -160
-132 -98 -79 -165 -126 -179 -126 -28 0 -80 57 -104 114 -21 47 -47 159 -56
231 -7 59 8 290 35 532 16 145 25 186 55 266 42 109 77 156 137 186 51 25 84
26 157 3z m671 -27 c0 -15 -6 -25 -14 -25 -24 0 -29 20 -10 35 25 19 24 19 24
-10z m524 -10 c-10 -25 -34 -17 -34 10 0 22 3 24 20 15 11 -6 17 -16 14 -25z
m-1125 -76 c33 -12 41 -28 16 -30 -8 -1 -20 -2 -26 -3 -7 -1 -15 9 -20 22 -10
26 -11 25 30 11z m2491 -29 c0 -48 -37 -135 -82 -191 l-33 -41 -6 38 c-6 37
-6 37 -8 -13 0 -29 3 -53 8 -53 12 0 83 86 104 125 15 28 16 9 16 -290 l-1
-320 -18 72 c-21 78 -44 130 -97 210 l-35 52 4 138 c3 101 9 149 22 178 16 38
101 135 118 135 4 0 8 -18 8 -40z m-1866 -115 c-10 -55 -15 -64 -45 -79 -28
-14 -29 -14 -35 10 -10 38 2 78 38 133 l33 50 7 -42 c4 -23 4 -55 2 -72z m463
98 c29 -37 63 -119 63 -155 0 -37 0 -37 -30 -26 -40 14 -49 33 -57 123 -6 76
-1 89 24 58z m-1610 -48 c-21 -20 -37 -40 -37 -44 0 -5 -31 -37 -69 -70 l-70
-62 11 38 c25 94 76 147 158 164 19 4 37 7 39 8 2 0 -12 -15 -32 -34z m2862
-15 c-10 -28 -19 -63 -19 -79 0 -58 -12 -67 -27 -20 -7 24 -13 49 -13 55 0 9
67 94 75 94 2 0 -5 -23 -16 -50z m-1269 -153 l49 -22 -17 -39 c-28 -62 -80
-76 -276 -76 -189 0 -217 7 -242 62 -9 21 -15 40 -13 42 2 2 30 20 62 40 l57
37 0 -61 c0 -60 0 -61 35 -76 19 -7 38 -14 44 -14 5 0 62 67 127 149 l119 149
3 -85 3 -84 49 -22z m1150 141 c30 -21 41 -40 65 -118 7 -24 7 -24 -11 -8 -11
9 -41 26 -69 38 -58 25 -110 63 -125 90 -10 19 -7 20 48 20 45 0 67 -5 92 -22z
m-2970 -301 l0 -68 -57 -69 -58 -68 -5 206 c-3 114 -3 217 -1 230 3 18 15 4
62 -70 56 -90 58 -96 59 -161z m2640 158 c25 -40 62 -145 51 -145 -26 0 -101
131 -101 179 0 20 2 21 15 11 8 -7 24 -27 35 -45z m207 -32 c33 -60 53 -141
53 -217 0 -84 -16 -79 -29 10 -5 32 -9 51 -10 40 -1 -12 -6 -16 -16 -12 -20 7
-20 -19 0 -74 23 -65 11 -59 -24 11 -23 46 -31 76 -31 114 0 58 19 165 30 165
3 0 16 -17 27 -37z m-289 -14 c24 -17 41 -34 38 -36 -6 -7 -69 32 -86 52 -21
25 4 17 48 -16z m-614 12 c3 -5 -3 -39 -13 -77 -79 -294 -92 -347 -83 -356 6
-6 15 13 25 49 8 32 24 87 36 123 l20 65 -6 -132 c-4 -97 -3 -133 6 -133 6 0
11 12 11 26 0 43 30 408 35 421 2 7 11 10 20 7 12 -5 15 -25 15 -103 0 -160
13 -381 22 -381 4 0 8 106 8 235 0 129 2 235 5 235 2 0 16 -5 30 -12 l25 -11
0 -194 c0 -151 3 -194 13 -190 9 3 12 49 12 185 0 100 4 182 8 182 23 0 113
-56 148 -92 50 -52 110 -173 153 -311 l34 -107 -37 -28 c-20 -16 -63 -48 -95
-72 l-59 -43 7 54 c4 36 3 49 -3 39 -9 -13 -11 -13 -15 0 -3 8 -23 63 -43 121
l-38 106 3 -293 c3 -249 1 -294 -11 -294 -11 0 -16 32 -21 158 -5 86 -11 177
-15 202 -6 40 -8 33 -14 -55 -4 -55 -7 -137 -7 -182 0 -75 -2 -83 -19 -83 -16
0 -21 9 -27 45 -3 25 -10 45 -14 45 -10 0 -20 -53 -20 -111 0 -47 -1 -48 -36
-58 -20 -6 -47 -20 -59 -31 l-23 -22 -28 37 c-16 21 -46 58 -67 82 -56 67
-137 178 -196 271 -29 45 -55 82 -57 82 -6 0 0 -11 66 -125 55 -95 104 -165
180 -255 77 -91 90 -114 82 -144 l-7 -27 -26 28 c-47 50 -183 236 -217 296
-18 31 -34 57 -36 57 -2 0 17 -53 41 -117 72 -189 113 -307 109 -310 -2 -2
-19 18 -39 44 -62 86 -158 293 -255 553 -12 30 -21 47 -21 38 -2 -37 126 -499
169 -616 11 -29 20 -57 20 -61 0 -5 -38 31 -85 79 -80 82 -86 90 -99 151 -8
35 -32 143 -54 239 -23 96 -51 225 -63 285 -20 103 -24 112 -60 146 -31 30
-39 44 -39 73 0 32 4 37 36 51 20 8 40 12 45 9 5 -3 27 -31 49 -62 41 -59 87
-117 75 -94 -4 7 -11 26 -15 43 -8 28 -7 29 7 17 9 -7 56 -65 104 -128 100
-130 125 -160 133 -160 14 0 4 21 -39 83 -25 37 -45 69 -45 72 0 4 13 -3 29
-14 57 -41 43 -20 -47 73 -51 51 -92 97 -92 100 0 10 53 -22 175 -106 84 -58
100 -66 108 -52 5 9 5 19 1 23 -15 13 -147 107 -203 145 l-53 36 93 0 c52 0
111 3 132 7 l38 6 -16 -39 c-27 -61 -29 -74 -13 -74 14 0 127 247 143 313 5
20 13 27 30 27 13 0 26 -4 29 -9z m-665 -37 c31 -26 41 -68 25 -109 -8 -21
-56 -45 -89 -45 -38 0 -85 50 -85 90 0 22 9 41 29 61 37 37 79 38 120 3z
m-180 -41 c-1 -16 -1 -38 -1 -50 2 -30 56 -89 87 -97 22 -6 25 -12 25 -47 0
-34 7 -47 38 -80 36 -36 41 -47 71 -186 18 -82 57 -248 86 -371 l54 -222 61
-68 62 -67 -73 -3 c-111 -5 -116 4 -180 305 -18 84 -34 151 -37 149 -5 -6 32
-243 56 -363 l19 -93 -23 0 c-13 0 -24 2 -24 4 0 1 -23 90 -50 197 -28 107
-48 176 -45 154 14 -100 35 -270 34 -280 -1 -16 -27 45 -48 115 -15 50 -23
131 -36 355 -9 160 -17 297 -19 305 -1 8 -6 -117 -11 -278 -4 -161 -11 -290
-15 -285 -16 17 -30 209 -31 420 -1 120 -4 243 -8 273 l-7 55 -13 -100 c-15
-104 -19 -106 -42 -15 -11 42 -12 44 -21 20 -5 -13 -10 -26 -12 -27 -2 -2 -31
25 -64 59 l-61 63 57 59 c52 53 145 124 165 125 5 1 7 -11 6 -26z m1453 -14
c35 -12 67 -25 71 -29 4 -4 -28 -10 -72 -14 -63 -5 -90 -3 -131 11 -29 10 -51
23 -51 28 0 9 46 20 98 24 13 0 51 -9 85 -20z m-752 -53 c-15 -46 -34 -49
-237 -44 -196 6 -243 21 -214 67 8 12 14 13 36 3 39 -18 362 -16 395 3 32 17
34 14 20 -29z m901 -6 c13 -10 20 -19 16 -20 -12 0 -77 28 -77 34 0 14 40 4
61 -14z m347 -29 c13 -42 15 -122 5 -160 -6 -23 -7 -23 -14 -5 -7 16 -8 16 -8
-7 -1 -33 -20 -89 -31 -89 -8 0 -30 83 -30 113 -1 19 54 187 61 187 3 0 11
-17 17 -39z m-373 -2 c22 -10 51 -28 65 -40 l25 -21 -45 7 c-43 6 -101 34
-145 70 -19 15 -18 16 20 10 22 -3 58 -15 80 -26z m-2640 -56 c-16 -46 -26
-112 -34 -204 -11 -146 -39 -245 -90 -324 l-26 -40 -3 203 c-2 172 0 207 14
235 15 29 150 197 158 197 2 0 -6 -30 -19 -67z m173 -103 c-3 -73 -10 -128
-20 -151 -21 -48 -76 -109 -150 -165 -57 -43 -58 -44 -52 -17 13 49 81 211
119 280 55 101 95 182 96 196 1 6 4 3 6 -8 3 -11 3 -71 1 -135z m2949 43 c55
-114 82 -271 82 -473 l1 -165 -32 55 c-17 30 -43 78 -59 105 -38 68 -48 145
-51 383 -3 227 -4 226 59 95z m-2254 -23 c48 -44 91 -120 113 -201 10 -37 16
-128 19 -284 2 -126 2 -221 -1 -210 -3 11 -18 81 -34 155 -52 239 -113 383
-197 465 -22 21 -32 39 -27 47 13 23 59 66 72 67 7 1 32 -17 55 -39z m1904
-21 c41 -20 83 -61 83 -82 0 -6 -19 -7 -46 -4 -33 3 -65 18 -115 52 -38 26
-69 49 -69 51 0 14 110 1 147 -17z m-2020 -93 c77 -70 133 -209 188 -466 23
-109 25 -140 24 -338 -1 -205 -2 -214 -15 -162 -23 93 -43 218 -59 380 -21
202 -37 279 -76 381 -27 69 -44 95 -95 146 -55 56 -59 63 -45 77 22 23 37 20
78 -18z m2273 -78 c-1 -82 -1 -82 -15 -49 -8 18 -15 47 -15 63 0 28 15 68 25
68 3 0 5 -37 5 -82z m-134 20 l16 -33 -31 29 c-35 34 -36 36 -16 36 8 0 22
-15 31 -32z m-231 -12 c62 -44 81 -77 89 -150 6 -53 5 -58 -9 -46 -13 10 -113
157 -149 218 -14 23 20 12 69 -22z m225 -157 c7 -25 8 -56 2 -82 l-8 -42 -22
49 c-26 57 -37 118 -27 143 6 16 8 16 26 -5 10 -13 24 -42 29 -63z m-430 10
c4 -13 9 -38 13 -55 l6 -32 -55 -4 c-34 -3 -65 -13 -83 -26 -33 -24 -41 -20
-41 19 0 24 12 37 68 78 37 28 71 49 76 47 6 -1 13 -13 16 -27z m375 -90 c54
-131 44 -198 -13 -85 -21 42 -34 84 -38 127 -8 82 4 72 51 -42z m-144 -6 c68
-17 71 -19 99 -70 17 -29 30 -55 30 -57 0 -3 -15 0 -32 5 -41 11 -178 12 -197
0 -10 -6 0 -19 40 -49 67 -50 86 -59 140 -71 48 -11 109 -4 87 10 -7 5 -25 9
-40 9 -57 0 -168 55 -168 83 0 18 121 -2 165 -27 49 -29 51 -31 99 -120 l38
-68 -46 27 c-33 19 -66 29 -111 33 -103 8 -108 0 -45 -63 l54 -55 -56 0 c-30
0 -69 3 -86 6 -26 5 -30 11 -36 52 -7 49 -52 220 -92 343 -13 42 -24 81 -24
87 0 6 25 -5 56 -23 31 -19 87 -42 125 -52z m-2573 -35 c11 -63 10 -81 -4
-128 -9 -30 -19 -59 -24 -63 -13 -14 -40 71 -40 125 0 49 32 138 49 138 4 0
13 -33 19 -72z m721 -40 c22 -129 42 -339 48 -513 l6 -180 -51 -16 -52 -15 -2
375 c-2 303 0 380 11 398 19 32 27 22 40 -49z m2187 37 c19 -46 18 -135 -3
-186 -16 -41 -16 -41 -29 -18 -24 45 -28 107 -9 175 9 35 19 64 22 64 2 0 11
-16 19 -35z m-731 -240 l7 -50 -23 35 c-12 19 -35 54 -51 78 -39 61 -36 112
10 165 15 17 17 11 33 -80 10 -54 21 -120 24 -148z m205 213 c15 -27 14 -28
-56 -100 -40 -40 -78 -86 -86 -101 -14 -27 -15 -25 -27 67 -8 52 -11 102 -7
111 9 23 86 55 126 53 26 -2 38 -10 50 -30z m-2216 -20 c5 -19 -4 -32 -45 -71
-28 -26 -53 -46 -55 -44 -12 12 66 137 85 137 5 0 11 -10 15 -22z m435 -537
c1 -155 -5 -175 -28 -91 -6 25 -24 84 -38 132 -24 82 -25 89 -9 112 22 34 20
48 -10 81 -23 25 -26 38 -30 120 l-4 93 52 30 53 29 6 -176 c4 -97 7 -246 8
-330z m-329 332 l0 -83 -34 0 c-25 0 -38 -6 -50 -25 -21 -31 -20 -41 4 -75 20
-29 18 -40 -10 -40 -29 0 -99 -53 -115 -87 -10 -20 -23 -33 -35 -33 -30 0 -79
-48 -91 -91 -7 -21 -16 -39 -22 -39 -24 0 -68 -44 -78 -81 -7 -22 -18 -39 -27
-39 -7 0 -27 -8 -43 -17 -45 -27 -43 -10 7 41 25 27 54 68 65 92 10 25 30 60
44 78 29 38 35 67 10 46 -21 -18 -19 -7 11 53 43 84 59 101 146 155 66 40 93
64 131 116 26 37 47 69 47 72 0 10 -95 -5 -132 -20 -18 -8 -46 -24 -61 -36
-15 -12 -30 -20 -33 -18 -11 11 61 92 110 123 29 19 56 41 60 50 5 14 14 10
51 -22 l44 -38 1 -82z m-410 3 c28 -94 32 -119 27 -182 -3 -40 -10 -81 -16
-91 -10 -17 -10 -17 -11 0 0 10 -16 59 -36 110 -32 82 -35 99 -31 162 4 60 27
144 33 119 1 -5 17 -58 34 -118z m2558 87 c29 -77 33 -98 20 -102 -7 -2 -40
-18 -73 -36 -56 -29 -63 -30 -93 -18 -18 7 -32 15 -32 18 0 17 43 84 69 110
27 25 72 52 92 54 4 1 11 -11 17 -26z m-1968 -28 c0 -17 -9 -29 -27 -39 -16
-8 -49 -33 -75 -56 l-48 -42 0 66 c0 65 0 66 28 67 15 0 45 6 67 14 55 18 55
18 55 -10z m1544 -60 c18 -38 20 -64 6 -85 -9 -13 -13 -12 -30 8 -21 25 -40
82 -40 120 0 21 1 22 24 7 13 -9 31 -31 40 -50z m1030 -66 c-7 -51 -51 -132
-69 -126 -25 8 -16 72 21 145 33 66 39 72 46 52 5 -13 5 -45 2 -71z m-2854 73
c0 -21 -77 -95 -131 -127 -33 -19 -62 -35 -65 -35 -12 0 38 78 68 107 25 24
89 55 126 63 1 0 2 -4 2 -8z m1746 -58 c8 -20 13 -38 11 -40 -2 -2 -24 -15
-49 -28 -44 -23 -47 -24 -62 -7 -23 26 -20 49 13 82 41 40 68 38 87 -7z m839
-3 c35 -16 102 -78 93 -86 -2 -2 -32 3 -68 11 -49 12 -76 25 -110 54 l-45 39
45 0 c25 1 63 -8 85 -18z m-2985 -31 c0 -10 14 -52 30 -94 47 -117 49 -186 8
-288 -13 -34 -28 -36 -28 -5 0 12 -11 58 -25 102 -28 88 -33 195 -14 270 11
44 29 53 29 15z m2374 1 c9 -10 14 -25 11 -34 -11 -27 13 -28 39 -2 14 14 30
25 35 25 21 0 22 -22 3 -43 -11 -12 -25 -34 -31 -49 -12 -31 -46 -38 -72 -15
-21 17 -69 84 -69 96 0 12 40 41 56 41 6 0 18 -8 28 -19z m318 -23 c-6 -6 -16
-7 -22 -3 -9 6 -9 9 1 16 17 10 34 0 21 -13z m-1974 -21 c8 -9 4 -23 -14 -52
-17 -29 -24 -55 -24 -92 l0 -53 -34 0 c-18 0 -61 -3 -95 -6 l-61 -7 0 53 c0
39 -7 65 -26 97 -40 69 -35 73 114 73 92 0 133 -4 140 -13z m1936 -15 c66 -58
53 -157 -26 -198 -57 -29 -138 -2 -159 54 -14 36 -5 98 18 124 42 48 124 58
167 20z m-383 -18 c55 -53 58 -126 7 -169 -55 -46 -105 -45 -159 3 -35 32 -50
103 -29 141 34 64 127 77 181 25z m559 -6 c85 -26 207 -108 272 -183 30 -34
93 -163 85 -172 -5 -4 -44 -7 -86 -7 -117 2 -226 42 -302 111 -56 51 -79 98
-67 142 6 22 6 49 -1 75 -5 22 -8 43 -5 48 5 8 49 2 104 -14z m199 -5 c84 -23
160 -65 229 -128 l62 -57 0 -59 0 -60 -45 -20 c-48 -21 -65 -19 -65 9 0 65
-116 211 -219 279 -32 21 -67 44 -77 50 -16 11 -13 12 21 7 22 -3 65 -12 94
-21z m-1021 2 c27 -8 28 -17 4 -38 -16 -15 -22 -15 -77 1 -61 18 -62 26 -7 42
27 8 37 7 80 -5z m-1558 -110 c0 -32 -4 -37 -45 -57 -55 -27 -61 -49 -11 -41
28 4 36 1 46 -17 15 -28 0 -41 -45 -39 -16 1 -43 -3 -58 -10 -37 -15 -47 -7
-47 35 0 66 31 115 95 148 49 26 65 21 65 -19z m2870 3 c0 -23 -3 -29 -11 -21
-6 6 -8 20 -4 32 9 30 15 26 15 -11z m-1294 -7 c58 -35 69 -114 21 -146 -44
-29 -81 -29 -114 -1 -54 46 -52 113 5 149 35 21 50 21 88 -2z m-215 -14 l41
-25 -104 -6 c-127 -9 -359 8 -493 36 -15 3 200 13 367 16 142 3 149 2 189 -21z
m575 -28 c-29 -61 -36 -69 -36 -40 0 34 27 91 44 91 12 0 11 -9 -8 -51z
m-1129 -17 c21 -46 21 -47 22 -15 2 52 17 46 44 -16 35 -81 50 -88 41 -19 l-6
53 61 -60 c58 -57 61 -58 61 -32 0 32 1 32 74 7 32 -11 81 -22 109 -26 47 -5
50 -5 32 8 -11 8 -40 26 -64 39 l-44 24 44 7 c24 3 83 7 130 7 105 1 112 -7
68 -84 -27 -48 -34 -54 -57 -50 -15 2 -70 7 -122 10 -52 3 -160 14 -240 24
-80 10 -162 16 -182 14 -25 -4 -38 -1 -38 6 0 25 32 151 38 151 4 0 17 -22 29
-48z m-88 -29 c-5 -27 -12 -55 -14 -64 -6 -18 -45 -33 -45 -18 0 11 59 129 64
129 2 0 -1 -21 -5 -47z m-902 -75 c-4 -43 -2 -46 14 -38 23 13 90 13 109 0 13
-8 12 -13 -8 -32 -17 -18 -34 -23 -70 -23 -31 0 -53 -6 -64 -17 -40 -40 -58
-15 -58 79 0 41 5 58 27 83 25 31 27 31 41 14 9 -13 12 -35 9 -66z m433 72 c0
-20 -42 -30 -123 -30 -71 0 -87 3 -102 20 -18 20 -17 20 103 20 72 0 122 -4
122 -10z m1745 -55 c9 -53 66 -190 106 -257 73 -120 179 -229 279 -285 28 -15
50 -31 50 -34 0 -3 -33 1 -72 9 -66 13 -77 13 -111 -2 -33 -14 -37 -19 -26
-32 7 -9 30 -24 51 -35 21 -11 38 -21 38 -24 0 -2 -11 -21 -25 -41 -14 -20
-25 -43 -25 -50 0 -42 -98 32 -170 128 -157 207 -211 472 -133 651 18 42 26
37 38 -28z m50 18 c31 -85 98 -227 125 -268 45 -66 199 -214 256 -247 61 -34
67 -41 27 -32 -77 17 -172 88 -259 193 -53 65 -97 145 -139 256 -22 58 -41
145 -32 145 2 0 12 -21 22 -47z m-194 17 c5 0 18 -9 29 -20 l20 -20 -21 -43
c-39 -79 -99 -101 -138 -51 -28 35 -26 66 4 103 25 29 56 42 83 35 8 -2 18 -4
23 -4z m559 -226 c120 -88 265 -147 397 -160 93 -10 58 -24 -59 -24 -58 0 -98
-4 -98 -10 0 -5 19 -30 43 -55 50 -51 82 -57 135 -25 18 11 35 20 38 20 3 0 4
-19 2 -42 -3 -38 -6 -43 -38 -51 -50 -13 -184 -2 -261 22 -91 29 -199 102
-291 199 -71 75 -138 171 -138 199 0 8 21 0 52 -18 29 -17 68 -33 88 -37 l35
-5 -45 54 c-53 62 -76 98 -91 137 -7 19 21 -4 93 -76 57 -56 119 -114 138
-128z m-2876 131 c5 -29 3 -46 -8 -60 -14 -18 -15 -14 -15 55 0 78 11 80 23 5z
m2806 4 c74 -59 219 -126 300 -138 68 -11 160 -2 199 18 11 6 22 11 25 11 3 0
6 -34 6 -76 l0 -77 -74 6 c-86 8 -196 45 -281 95 -84 49 -186 133 -226 184
-36 46 -34 45 51 -23z m-2179 34 c1 -10 4 -123 8 -251 4 -144 10 -232 16 -232
6 0 9 86 6 245 -2 209 -1 245 11 245 12 0 16 -27 21 -137 4 -75 7 -185 7 -245
0 -102 -2 -112 -26 -143 -35 -46 -64 -144 -64 -214 0 -32 -3 -86 -6 -120 l-7
-61 -68 0 c-78 0 -113 11 -151 47 -23 22 -25 29 -17 56 12 40 3 100 -22 150
-18 34 -18 39 -4 67 17 33 71 73 122 90 17 6 34 18 37 26 3 8 9 120 12 249 7
223 8 235 26 235 19 0 19 -8 12 -246 -6 -209 -5 -246 7 -242 11 4 14 51 17
251 l2 247 30 0 c21 0 30 -5 31 -17z m1297 -12 c12 -11 22 -21 22 -24 0 -8
-82 -38 -88 -32 -7 7 25 75 35 75 5 -1 18 -9 31 -19z m210 -17 c32 -22 28 -36
-22 -82 -58 -53 -93 -63 -118 -32 -10 12 -18 28 -18 36 0 68 101 118 158 78z
m-1667 -41 c-3 -44 -10 -55 -75 -123 -39 -41 -120 -133 -181 -205 -120 -143
-122 -145 -148 -145 -15 0 -15 3 -5 22 7 11 29 36 48 54 20 18 42 45 50 61 8
15 36 50 63 76 26 26 47 54 47 62 0 8 4 15 9 15 10 0 89 100 81 103 -3 1 16
22 43 46 26 24 47 52 47 62 0 11 6 19 13 19 8 0 11 -14 8 -47z m949 22 c58 -8
172 -19 255 -25 88 -6 152 -15 156 -22 5 -8 21 -8 57 -1 l49 10 10 -44 c10
-43 9 -45 -15 -54 -15 -6 -67 -34 -117 -64 -242 -143 -267 -155 -305 -149 -19
4 -56 15 -82 25 -27 10 -48 17 -48 14 0 -3 25 -19 55 -36 30 -17 55 -33 55
-35 0 -3 -24 -2 -52 2 -35 5 -92 27 -167 65 -63 33 -118 59 -123 59 -6 0 51
-51 126 -112 l136 -113 -52 -3 c-49 -3 -165 18 -217 39 -17 7 -8 -7 33 -52 82
-88 128 -159 114 -176 -9 -11 -18 -8 -47 14 -20 15 -51 38 -68 51 -18 13 -33
22 -33 18 0 -3 16 -37 35 -74 l35 -67 -103 -101 -102 -101 -3 33 c-3 27 -8 33
-30 36 -21 2 -28 10 -33 33 l-7 30 -1 -32 -1 -33 -65 0 -65 0 -2 170 -3 171
-37 -73 c-21 -40 -51 -102 -68 -138 l-31 -65 6 54 c3 30 20 97 37 150 82 259
220 381 459 406 64 7 71 5 193 -44 70 -28 134 -51 142 -51 34 0 366 148 359
160 -2 4 -35 10 -72 13 -37 4 -156 23 -263 42 -107 19 -220 35 -251 35 -62 0
-221 -44 -305 -85 -70 -34 -157 -127 -180 -193 -10 -29 -23 -52 -28 -52 -5 0
-6 28 -4 63 7 78 42 150 98 201 53 48 104 70 205 90 148 29 221 31 365 11z
m-1244 -83 c-6 -43 -6 -43 16 -27 24 16 123 21 132 6 4 -5 -8 -21 -25 -35 -22
-18 -42 -26 -70 -26 -25 0 -51 -8 -69 -21 -46 -35 -60 -21 -60 61 0 67 2 74
31 103 l32 31 9 -24 c5 -14 7 -44 4 -68z m3160 33 c-3 -8 -31 -22 -62 -31 -79
-23 -204 -16 -259 14 l-40 22 40 -7 c76 -15 216 -7 270 15 49 19 63 16 51 -13z
m-1886 -40 c80 -14 161 -30 180 -35 33 -7 31 -8 -25 -11 -33 -1 -163 -3 -290
-3 -261 -1 -278 -5 -408 -90 -43 -29 -64 -38 -57 -26 17 31 92 91 145 115 83
37 264 86 295 80 8 -2 80 -15 160 -30z m766 0 c10 -8 40 -15 67 -15 50 0 58
-11 33 -45 -18 -25 -78 -25 -104 -1 -19 16 -36 76 -22 76 3 0 15 -7 26 -15z
m-2149 -99 c3 -31 7 -56 8 -56 2 0 16 7 31 15 32 16 110 20 118 6 11 -18 -54
-61 -91 -61 -20 0 -46 -9 -60 -20 -55 -43 -93 -13 -93 73 0 42 18 80 50 104
22 17 30 3 37 -61z m2134 -28 c74 -50 104 -86 145 -173 33 -72 90 -263 80
-272 -2 -3 -18 21 -34 53 -39 77 -181 291 -217 326 -50 50 -155 50 -248 2 -59
-31 -371 -339 -598 -589 l-135 -150 -97 -3 -97 -3 0 25 c0 20 40 61 193 198
423 381 658 554 840 618 65 23 93 18 168 -32z m-1734 -105 c-6 -6 -77 29 -77
38 0 4 17 27 38 51 l37 44 3 -64 c2 -36 1 -66 -1 -69z m-34 -42 c25 -25 29
-33 19 -43 -11 -11 -15 -10 -23 5 -16 28 -58 40 -90 27 -35 -15 -62 -78 -53
-126 7 -38 6 -39 -31 -22 -21 9 -25 18 -25 55 0 126 120 187 203 104z m-309
20 c3 -5 -10 -23 -29 -40 -27 -24 -45 -31 -75 -31 -42 0 -50 12 -27 43 20 28
118 49 131 28z m270 -77 c31 -30 10 -34 -25 -4 -19 15 -21 19 -7 20 9 0 24 -7
32 -16z m-360 -42 c3 -5 -8 -16 -25 -26 l-29 -17 0 25 c0 21 5 26 24 26 14 0
27 -4 30 -8z m102 -99 c13 -17 15 -17 28 1 31 39 129 -12 148 -76 12 -43 7
-113 -10 -148 -22 -44 -83 -80 -140 -80 -50 0 -112 29 -141 66 -58 74 -42 189
32 234 40 25 66 25 83 3z m2892 -3 c69 -42 94 -144 53 -220 -21 -40 -89 -80
-135 -80 -50 0 -118 40 -138 80 -38 74 -14 174 51 217 44 30 122 31 169 3z
m310 -147 l3 -153 -63 0 c-111 0 -161 47 -151 142 9 93 88 171 168 166 l40 -3
3 -152z"/>
<path d="M2405 3894 c-21 -14 -62 -31 -91 -37 -29 -6 -63 -19 -76 -30 -13 -10
-17 -16 -10 -12 7 4 43 13 79 21 37 7 83 24 102 38 20 13 45 29 56 35 20 10
20 10 -1 11 -12 0 -38 -12 -59 -26z"/>
<path d="M2641 3885 c30 -18 77 -39 104 -45 28 -5 61 -13 75 -16 24 -5 24 -5
5 9 -11 8 -38 17 -60 21 -22 4 -63 21 -91 37 -73 41 -101 37 -33 -6z"/>
<path d="M2490 3519 c0 -18 39 -29 64 -19 39 14 31 25 -19 26 -25 0 -45 -3
-45 -7z"/>
<path d="M2485 3471 c-12 -20 3 -26 55 -23 33 3 50 8 47 15 -5 15 -93 21 -102
8z"/>
<path d="M2505 3420 c-4 -6 8 -10 29 -10 20 0 36 5 36 10 0 6 -13 10 -29 10
-17 0 -33 -4 -36 -10z"/>
<path d="M2447 563 c-26 -7 -15 -27 17 -31 35 -4 58 14 36 28 -16 10 -24 11
-53 3z"/>
<path d="M2757 554 c-13 -14 6 -24 44 -24 28 0 39 4 39 15 0 11 -11 15 -38 15
-21 0 -42 -3 -45 -6z"/>
<path d="M2870 545 c0 -8 7 -15 15 -15 8 0 15 7 15 15 0 8 -7 15 -15 15 -8 0
-15 -7 -15 -15z"/>
</g>
</svg>
